<svg xmlns="http://www.w3.org/2000/svg" width="1136" height="678" version="1.2" viewBox="0 0 1136 678"><defs><clipPath id="cp1" clipPathUnits="userSpaceOnUse"><path d="m0 0h1136v794h-1136z"/></clipPath><linearGradient id="P" gradientUnits="userSpaceOnUse"/><linearGradient id="g1" x1="874.4" x2="876.6" y1="713.6" y2="426.5" href="#P"><stop stop-color="#001462"/><stop offset=".1" stop-color="#071e71"/><stop offset=".3" stop-color="#183594"/><stop offset=".4" stop-color="#2647b0"/><stop offset=".6" stop-color="#3054c4"/><stop offset=".8" stop-color="#365cd0"/><stop offset="1" stop-color="#385fd4"/></linearGradient><linearGradient id="g2" x1="114.1" x2="624.4" y1="566" y2="663.9" href="#P"><stop offset=".1" stop-color="#001462"/><stop offset=".3" stop-color="#132e89"/><stop offset=".5" stop-color="#2343aa"/><stop offset=".7" stop-color="#2e52c1"/><stop offset=".8" stop-color="#355bcf"/><stop offset="1" stop-color="#385fd4"/></linearGradient></defs><style>.s0{fill:none;stroke:#becce3;stroke-width:.7}.s1{fill:#becce3}.s2{fill:#cdd8e9}.s3{fill:#da2580}.s4{fill:#f5f7fa}.s5{fill:#3f5f94}.s6{fill:#2573da}.s7{fill:url(#g1)}.s8{fill:#385483}.s9{fill:#ffdf67}.s10{fill:#ffbf40}.s11{fill:#6d8cc1}.s12{fill:url(#g2)}.s13{fill:#223553}.s14{fill:#dce5f2}.s15{fill:#adbfdc}</style><g clip-path="url(#cp1)"><path d="m815.7 100.1l-73.2-73.2l100-26.8z" class="s0"/><path d="m917.6 148.6c-22.4 3.5-43.4-11.9-46.9-34.3c-3.5-22.5 11.8-43.5 34.3-47c22.5-3.5 43.5 11.8 47 34.3c3.5 22.5-11.9 43.5-34.4 47z" class="s0"/><path d="m906.2 21.7c-2.7 6.6-10.2 9.8-16.9 7c-6.6-2.7-9.7-10.2-7-16.8c2.7-6.7 10.3-9.8 16.9-7.1c6.6 2.7 9.8 10.3 7 16.9z" class="s1"/><path d="m232.4 267.4c-1.4 0.5-9.8 7.1-18 19.1c-8.2 11.9-15.7 29.1-17.3 47.1c-1.3 14.4-2.1 24.5-3.7 32.3q-0.2 1.2-0.5 2.4q-0.3 1.3-0.7 2.5q-0.4 1.2-0.8 2.4q-0.5 1.2-1 2.3q-0.4 1-0.8 1.9q-0.5 0.9-1 1.7q-0.6 0.9-1.2 1.7q-0.6 0.8-1.3 1.6c-6.5 7.5-16.9 9.6-27 13.4q-1.6 0.5-3 1.5q-1.4 1-2.5 2.3q-1 1.4-1.6 3q-0.6 1.5-0.7 3.2q-0.1 0.9-0.2 1.8q0 0.9 0 1.8q0 0.9 0 1.8q0.1 0.9 0.2 1.8c0.3 2.5 0.8 5.1 1.3 7.7c0.7 5.3 1.9 10.6 1 15.5c-0.8 5-3.3 9.6-9.3 13.8c-4 3-8.4 6.3-12.6 10q-1.6 1.4-3.2 2.9q-1.5 1.5-3 3q-1.5 1.6-2.9 3.2q-1.4 1.6-2.7 3.3q-1.3 1.8-2.5 3.6q-1.3 1.9-2.3 3.8q-1.1 1.9-2.1 3.9q-1 2-1.8 4.1q-0.4 1.1-0.8 2.3q-0.4 1.2-0.7 2.5q-0.3 1.2-0.6 2.4q-0.3 1.2-0.5 2.5v144.8h-3.1v-114.7c0-37.9-22-72.1-42.9-99.4c-13.6-17.7-55.3-69.2-62.6-73.2c7.3 4 34.9 12.8 64.4 40.3c31.5 29.3 40.8 82.3 41.1 84.2v-84q-0.1-0.3-0.2-0.5c-1.5-3.4-3.5-8.3-6.5-13.9q-1.3-2.4-2.7-4.7q-1.4-2.3-2.9-4.5q-1.4-2.3-3-4.5q-1.5-2.2-3.2-4.4q-1.9-2.4-3.9-4.8q-2-2.3-4.1-4.6q-2.1-2.2-4.4-4.4q-2.2-2.1-4.5-4.2c-10.3-9-17.6-15.9-21.9-22.1c-4.6-6-6.4-11.3-6.6-16.1c-0.5-9.7 6-18 11.4-26.8c5.5-9-2.4-15.1-9.9-21.5c-3.8-3.2-7.5-6.6-9.6-10.7c-2.2-4.1-2.6-9 0.1-15.4c1.8-4.5 3.6-9.3 5.3-14.4q0.6-1.9 1.1-3.9q0.5-1.9 0.9-3.9q0.4-2 0.8-4q0.3-1.9 0.6-3.9c0.9-10.9-0.1-22.1-8.1-32.9q2.3 3.3 4.6 6.6q2.2 3.3 4.4 6.7q2.1 3.4 4.2 6.9q2 3.5 4 7c4.8 9 9.5 18.1 13.7 27.3q3.1 6.9 6 13.8q3 7 5.7 14q2.8 7 5.3 14.2q2.5 7.1 4.8 14.3q2.4 7.2 4.5 14.5q2.1 7.3 3.9 14.7q1.8 7.3 3.4 14.8q1.6 7.4 2.9 14.9q2.4 13.4 3.9 27.1v-73.5q-0.9-5.4-2-10.7q-1.1-5.4-2.4-10.6q-1.3-5.3-2.8-10.5q-1.5-5.3-3.2-10.4c-7.9-24.6-19.6-53.2-32.9-84.1c-11.1-25.1-20.4-47.4-29-65.3c-8.6-17.9-16.9-31.4-24.5-38c7.4 6.5 20 16.3 33.7 31.8q6.2 7 11.9 14.4q5.6 7.5 10.6 15.3q5.1 7.9 9.5 16.1q4.4 8.3 8.2 16.8q4.4 10.3 8.1 20.9q3.7 10.6 6.5 21.4q2.9 10.8 5 21.9q2 11 3.3 22.1v-47.6c-3.1-20.2-9.6-50.5-9.6-85.7c0-37.6 11.2-65.8 11.2-79.1c0 13.3 11.1 41.5 11.1 79.1c0 35.1-6.5 65.5-9.6 85.7v43.7q1.3-6.8 3.1-13.5q1.9-6.6 4.4-13q2.5-6.5 5.6-12.6q3.1-6.2 6.8-12c9.1-14.4 20.1-24.6 29.5-32.3c9.4-7.7 17.5-12.7 20.8-17.5c-3.2 4.8-7.2 13.4-12 24.3q-2 4.9-4.3 9.6q-2.3 4.8-4.7 9.5q-2.5 4.6-5.1 9.2q-2.6 4.6-5.3 9.1c-10.5 16.4-20.9 30.8-28.4 43.7q-1.6 2.7-3.1 5.5q-1.5 2.7-2.8 5.6q-1.3 2.8-2.4 5.8q-1.1 2.9-2.1 5.9v114.1q1.2-10.1 3.1-20.2q1.9-10 4.5-19.9q2.6-9.9 6-19.5q3.4-9.7 7.5-19.1q3.5-7.9 7.6-15.5q4.2-7.5 9-14.7q4.8-7.2 10.1-14q5.4-6.8 11.3-13.1c13.1-14 25.2-22.3 31.7-28.7c-6.6 6.5-14.5 18.6-22.5 35.1c-8.1 16.5-16.7 36.8-26.9 60c-12.3 28.2-23.5 54.4-31 76.9q-1.7 4.7-3.2 9.5q-1.4 4.7-2.7 9.5q-1.3 4.9-2.4 9.7q-1.1 4.9-2.1 9.8v52.9q0.4-5.3 0.9-10.5q0.5-5.2 1.1-10.5q0.6-5.2 1.4-10.4q0.8-5.2 1.8-10.4l1.6-8.4l2-8.4c1.2-5.7 3-11.2 4.5-16.8q1.3-4.2 2.7-8.3q1.5-4.1 3-8.2q1.6-4.1 3.2-8.2q1.7-4 3.5-8q1.9-4.1 3.8-8q2-4 4.1-7.9q2.1-3.9 4.4-7.7q2.2-3.8 4.6-7.5q2.5-3.8 5-7.4q2.6-3.7 5.3-7.3q2.7-3.5 5.6-7q2.8-3.4 5.8-6.7q3-3.4 6.2-6.7q3.2-3.2 6.5-6.3q3.3-3.1 6.7-6q3.4-3 7-5.8q1.8-1.4 3.7-2.8q1.8-1.3 3.7-2.7q1.9-1.3 3.8-2.6q1.9-1.3 3.9-2.5q3.9-2.5 8.1-4.8c1.5-0.8 2.9-1.6 4.4-2.3l2.4-1.2l1.3-0.6z" class="s1"/><path d="m956.5 348.2l1.1 0.5l1.8 0.9c1.2 0.6 2.3 1.2 3.5 1.8q3.3 1.8 6.4 3.8q1.5 1 3 2q1.6 1 3 2q1.5 1.1 3 2.2q1.4 1 2.8 2.2q2.8 2.2 5.5 4.5q2.7 2.3 5.3 4.7q2.6 2.4 5.1 5q2.5 2.5 4.9 5.2q2.3 2.6 4.6 5.3q2.2 2.7 4.3 5.5q2.2 2.8 4.2 5.7q2 2.9 3.9 5.8q1.9 3 3.7 6q1.7 3 3.4 6q1.7 3.1 3.2 6.2q1.6 3.1 3 6.3q1.4 3.1 2.8 6.3q1.3 3.2 2.5 6.4q1.2 3.2 2.3 6.5q1.1 3.2 2.1 6.5c1.3 4.4 2.6 8.7 3.6 13.2l1.6 6.6l1.2 6.6q0.8 4.1 1.4 8.2q0.7 4.1 1.2 8.2q0.5 4.1 0.9 8.2q0.3 4.1 0.6 8.2v-41.6q-0.7-3.8-1.6-7.6q-0.9-3.8-1.9-7.6q-1-3.8-2.2-7.5q-1.1-3.8-2.4-7.5c-6-17.7-14.7-38.3-24.4-60.5c-8-18.1-14.8-34.1-21.1-47.1c-6.3-12.9-12.6-22.5-17.7-27.6c5.1 5 14.6 11.6 24.8 22.6q4.7 4.9 8.9 10.3q4.3 5.3 8 10.9q3.8 5.7 7 11.7q3.3 5.9 6.1 12.1q3.2 7.4 5.8 15q2.7 7.6 4.8 15.3q2 7.8 3.5 15.7q1.5 7.9 2.4 15.9v-89.7q-0.7-2.4-1.6-4.7q-0.9-2.3-1.9-4.5q-1-2.3-2.2-4.4q-1.1-2.2-2.4-4.3c-5.9-10.2-14.1-21.4-22.3-34.4q-2.2-3.5-4.3-7.1q-2-3.6-3.9-7.3q-1.9-3.7-3.7-7.4q-1.8-3.7-3.4-7.6c-3.8-8.6-6.9-15.3-9.4-19.1c2.5 3.8 8.9 7.7 16.3 13.8c7.4 6 16 14.1 23.2 25.4q2.9 4.5 5.3 9.4q2.5 4.8 4.4 9.9q2 5 3.5 10.3q1.4 5.2 2.4 10.5v-34.3c-2.4-15.9-7.5-39.7-7.5-67.4c0-29.5 8.7-51.7 8.7-62.1c0 10.4 8.8 32.6 8.8 62.1c0 27.7-5.1 51.5-7.5 67.4v37.4q1-8.7 2.6-17.4q1.6-8.7 3.9-17.2q2.2-8.5 5.1-16.8q2.9-8.3 6.4-16.4q2.9-6.7 6.4-13.2q3.5-6.5 7.4-12.7q4-6.2 8.4-12q4.5-5.9 9.4-11.4c10.7-12.1 20.6-19.8 26.4-24.9c-5.9 5.2-12.4 15.8-19.2 29.8c-6.8 14.1-14.1 31.6-22.8 51.4c-10.5 24.3-19.7 46.7-25.8 66q-1.4 4.1-2.6 8.2q-1.2 4.1-2.2 8.3q-1 4.1-1.9 8.3q-0.8 4.2-1.5 8.4v57.8q1.1-10.8 3-21.3q1-5.9 2.3-11.7q1.2-5.9 2.7-11.7q1.4-5.8 3.1-11.5q1.6-5.7 3.5-11.4q1.8-5.7 3.8-11.3q1.9-5.6 4.1-11.1q2.1-5.5 4.5-11q2.3-5.5 4.8-10.9c3.2-7.2 6.9-14.3 10.7-21.4q1.5-2.8 3.2-5.5q1.6-2.7 3.3-5.4q1.6-2.7 3.4-5.3q1.8-2.6 3.6-5.2c-6.2 8.5-7.1 17.4-6.3 25.9q0.2 1.5 0.4 3.1q0.3 1.5 0.6 3.1q0.4 1.5 0.8 3.1q0.4 1.5 0.8 3c1.3 4 2.8 7.8 4.2 11.3c2.1 5.1 1.8 8.9 0.1 12.1c-1.7 3.3-4.6 5.9-7.6 8.4c-5.9 5.1-12.1 9.9-7.7 16.9c4.2 7 9.3 13.5 8.9 21.1c-0.2 3.8-1.6 7.9-5.2 12.7c-3.4 4.8-9.1 10.3-17.2 17.4q-1.8 1.6-3.6 3.2q-1.7 1.7-3.4 3.5q-1.7 1.8-3.3 3.6q-1.5 1.9-3 3.8q-2.2 2.9-4.3 5.9q-2 3-3.8 6.2q-1.8 3.1-3.4 6.4q-1.5 3.3-2.9 6.7l-0.1 0.3v66c0.2-1.4 7.5-43.1 32.2-66.1c23.3-21.6 45-28.5 50.7-31.7c-5.8 3.2-38.5 43.6-49.2 57.5c-16.5 21.5-33.7 48.4-33.7 78.2v90.1h-2.5v-113.8q-0.2-1-0.4-2q-0.2-0.9-0.4-1.9q-0.3-0.9-0.6-1.9q-0.3-0.9-0.6-1.9q-0.7-1.6-1.4-3.1q-0.8-1.6-1.6-3.1q-0.9-1.5-1.9-3q-0.9-1.4-2-2.8q-1-1.3-2.1-2.6q-1.1-1.3-2.3-2.5q-1.1-1.2-2.3-2.4q-1.2-1.2-2.5-2.3c-3.4-2.9-6.8-5.5-9.9-7.8c-4.8-3.3-6.7-7-7.3-10.9c-0.7-3.8 0.2-8 0.8-12.1c0.3-2.1 0.7-4.1 1-6.1q0-0.7 0.1-1.4q0-0.7 0-1.4q0-0.7 0-1.5q-0.1-0.7-0.1-1.4q-0.1-1.3-0.6-2.5q-0.5-1.3-1.3-2.3q-0.8-1.1-1.9-1.8q-1.1-0.8-2.3-1.2c-8-3-16.2-4.7-21.3-10.6q-0.5-0.6-1-1.2q-0.5-0.7-0.9-1.3q-0.4-0.7-0.8-1.4q-0.4-0.7-0.7-1.5q-0.4-0.9-0.7-1.8q-0.4-0.9-0.7-1.9q-0.3-1-0.5-1.9q-0.3-1-0.4-2c-1.3-6-1.9-14-2.9-25.3q-0.5-5-1.7-9.9q-1.1-4.8-2.8-9.5q-1.7-4.7-4-9.1q-2.3-4.4-5.2-8.5c-6.4-9.5-13-14.7-14.1-15.1z" class="s2"/><path d="m414.3 457.9c-6.3-40.1-38.9-111-38.9-111c6.2-3.5 19.3-7.2 31-10.6c12.2 28.5 36.3 44.8 63 40.1c20.5-3.6 32-21.3 37.5-43.5c2.4 0.8 3.9 1.3 3.9 1.3c25.9 12.3 35.9 16.7 39 29.5c0 0-2 26.2-23.9 59.9c-21.9 33.7-9.5 61.2 4.8 84.3c14.4 23.1 30.3 74.1 15.2 133c-2.7 10.2-5.4 19.8-8.2 28.8h-123.2c-7.4-21.8-14.6-44.9-19.5-65.4c-14.8-63 25.5-106.3 19.3-146.4z" class="s3"/><path d="m406.4 336.3c12.3-3.7 23.1-7 23.1-9.7v-28.2l37.9-10.8c0 0-2 29.1 5.2 32.7c5.6 2.8 25.7 9.7 34.3 12.6c-5.5 22.2-17 39.9-37.5 43.5c-26.7 4.7-50.8-11.6-63-40.1z" class="s2"/><path d="m472.6 320.7c5.6 2.8 25.7 9.7 34.3 12.6c-5.5 22.2-17 39.9-37.3 43.5c-6.1-29.3-24.1-45.3-40.1-53.9v-24l37.9-10.8c0 0-2 29 5.2 32.6z" class="s2"/><path d="m494.3 498.3c-22.6 0.3-43.8-0.7-50-2c-14-2.8-43.1 6-52.2-0.4c-9.2-6.4-7.4-15.9 4.3-30.2c11.6-14.4 36.3 9.1 53.1 9.1c8.4 0 24.3-5.7 41.2-10.8c5.2 9 5.5 25.3 3.6 34.3z" class="s4"/><path d="m558.2 488l-31.6-32.1c0 0 2.4-30.2-4.4-52.8c-7.9-26.3 24.4-55.1 28.3-39.4c3.2 12.7 18.5 111.1 7.7 124.3z" class="s3"/><path d="m558.2 488c-5.9 7.2-36 9.9-63.9 10.3c1.9-9 1.6-25.3-3.6-34.3c16.6-5.1 34.2-9.7 46.4-7.9c35.5 5.2 21.1 31.9 21.1 31.9z" class="s3"/><path d="m441.8 237.9c0 0 5.3 1 6.3 9.9q0.3 2.5 1.1 4.8q0.9 2.3 2.2 4.4q1.4 2 3.1 3.7q1.8 1.8 4 3v29.1c0 0-9 15.8-25.2 12.2c-18.4-4-19.1-48-12.5-60.9c10 0.4 21-6.2 21-6.2z" class="s4"/><path d="m392.1 457.9c-8.3-16.7-13.9-37.9-18.8-49.8c-9.2-22.6-10.7-54 2.1-61.2c23.5-12 33.4 29.4 35 41.4c1.6 12 4.8 40.1 13.6 50.2z" class="s3"/><path d="m510.8 334.2c-11.9-1.3-14.6 19.2-30.2 17.6c-15.6-1.7-22.1-31.6-22.1-59v-29.1q-2.2-1.2-4-3q-1.7-1.7-3.1-3.7q-1.3-2.1-2.2-4.4q-0.8-2.3-1.1-4.8c-1-8.9-6.3-9.9-6.3-9.9c0 0-11 6.6-21 6.2c-6.2 12.1-5.9 50.1 8.7 59.4v23.1c0 2.1-6.5 4.6-15.2 7.3v-78.7c0-32.9 35-46 57-28.6c26.8 21.2 9 76.1 24.9 86c16 10 14.6 21.6 14.6 21.6z" class="s5"/><path d="m451.1 436.4c-2.3 21.1-9.1 44.2-28.7 46.4c-13.3 1.5-22.9-10-30.3-24.9c0.4-17.4 14.1-27.8 22.8-39.7c6.4 8.9 23.1 19.2 36.2 18.2z" class="s3"/><path d="m461 332.2q0 0.3 0 0.5c-0.2 5.2-3.2 5.4-3.2 5.4v9c0 4.4 0 9.5-2 12.7c-2.2 3.4-3.6 49.6-3.5 51.7q0 3.1-0.1 6.2q0 3.1-0.2 6.3q-0.1 3.1-0.4 6.2q-0.2 3.1-0.5 6.2c-13.1 1-29.8-9.3-36.2-18.2q0.6-0.8 1.2-1.7q0.6-0.9 1.2-1.9q0.6-0.9 1.1-1.8q0.5-1 1-2c7.9-17 14-45.9 14-52.5c0-6.6-5.9-28.4-5.9-31.3c0-2.9 13.2-14.4 17-16.1c3.7-1.7 16.5 15.6 16.5 21.3z" class="s4"/><path d="m810.7 407.7c0 0-1.4 64 0 65.5c1.4 1.4-45.6 0-45.6 0v-140.9z" class="s6"/><path d="m897.3 479.2l29.8 82.1l-22.4 107.5h-81.6c0 0 33.5-101.5 34.9-112.8c1.5-11.4 3.9-41.4 0-67.8z" class="s7"/><path d="m897.3 479.2l29.8 82.1l-22.4 108.4h-88.2c0 0 40.1-102.4 41.5-113.7c1.5-11.4 3.9-41.4 0-67.8z" class="s8"/><path d="m954.1 460.2c12 37.7 65.8 49.9 51 110.7c-10.7 43.9-32.6 98.8-32.6 98.8h-101.8c0 0 32-95.7 32-108.4c0-12.6-20.1-77.8-20.1-77.8z" class="s8"/><path d="m926.9 332c28.8 24.4 26.3 76.1 27.9 120.8c1.6 44.8-95.2 47.4-96.8 35.4c-1.5-12-0.5-18.2-34.9-41.6c-34.4-23.4-32.7-33.8-36.9-52.6c-4.1-18.8-5.7-14.5-16.7-38.5c-10.9-23.9 0-49.4 12-55.1c0 0 116.6 7.3 145.4 31.6z" class="s6"/><path d="m795.8 245c0 0 21.6 56.9 22.1 82.5c0.4 25.6-48.4 51.8-48.4 51.8v-134.3z" class="s8"/><path d="m842.5 297.3v50.2c0 0-3.8 30.4-5.2 34.7c-4.8 14.2-25.9 17.1-29.2 0c-3.2-17.1 6.6-37.1 4.4-41.6c-2.2-4.5-8.7-15-8.7-15z" class="s1"/><path d="m803.8 325.6l38.7-28.3v50.2c0 0-3.8 30.4-5.2 34.7q-0.9 2.5-2.4 4.7q-1.6 2.1-3.8 3.7q-2.1 1.6-4.6 2.4q-2.6 0.9-5.2 0.9l-3.2-0.3q-0.1 0-0.2-0.1c22.5-3.3 8.3-68.3-5.4-52.9c-2.2-4.5-8.7-15-8.7-15z" class="s1"/><path d="m841.6 207.8c22 11.4 2.7 61.5 2.7 80.8c0 19.2-28.6 41-48.5 36.5c-19.9-4.5-27.2-42.6-20.6-84c4.3-26.3 44.5-44.7 66.4-33.3z" class="s2"/><path d="m792 237.4c0 0-10.4 8.7-18.1 13.2c-7.6 4.6-5.7-21.6 9-33.9c14.8-12.3 34.2-22.8 42.1-15.7c0 0 24.6-6.9 39.5 18.3c15 25.1 16 47.7 20.7 54c4.8 6.3 12.6 10.2 9 22c0 0 26.2-5.3 30.1 12.8c3.9 18.1 2.6 23.9 2.6 23.9c0 0-8.1-6.3-24.8-12.2c0 0-11.3 8.9-22 8.9c-10.8 0-24.3 43.3-43.2 43.3l-0.1-103.2c0 0-42.6-5.4-44.8-31.4z" class="s8"/><path d="m576.2 561.3l-44.4 104.4h-71.1c0 0 42.7-157.2 92.2-208.8z" class="s9"/><path d="m787.9 560.5c-2.7 32.7-23.5 98.4-24.5 97.4c-1.1-1.1-176.4 7.4-176.4 0q-0.1-11.2-1.1-22.3q-1-11-3-22q-2-11-4.9-21.7q-2.9-10.8-6.7-21.2c-10.9-29.3-26.6-102.9-19.4-113.8c9.7-14.9 59.9-34 121.9-37.7c70.4-4.2 125.5 34.5 135.9 46.2c-25.2 26.3-19.1 62.4-21.8 95.1z" class="s10"/><path d="m715.8 358.1c0 0 0.8 54.5 0 70.8c-0.9 16.3-26.1 30.9-35.5 31.3c-9.3 0.4-30.1-13.4-33.3-36.6v-49.2z" class="s2"/><path d="m699.8 409.2c-9.1 23.9-47.1 30.8-52.8 5.6v-40.4l68.8-16.3c0 0 0.2 13.8 0.3 29.6c-6.7 3.7-11.1 7.8-16.3 21.5z" class="s1"/><path d="m674.5 288.5c23 0 38.1 16.5 39.3 43c1.3 26.4-8.4 74.9-40.4 80c-25.8 4.1-42.1-34.6-44.7-74.5c-2.2-33.9 24-48.6 45.8-48.5z" class="s2"/><path d="m721.3 350.3c-1.7 7.9-5.6 14-8.6 13.4c-3.1-0.5-4.2-7.3-2.5-15.3c1.7-8 5.6-14 8.7-13.5c3 0.5 4.1 7.4 2.4 15.4z" class="s1"/><path d="m629.2 343.2c-4.8-7.5-5.2-10.4-4.8-22.8c0.3-12.4 10.8-12.8 10.6-18.1c-0.2-5.3 6.5-19.5 34.1-20.6c27.6-1.2 25.9 11.4 34.4 12.3c8.6 0.8 21.8 9.6 15.4 40.9c0 0-7.5 0.7-10.5 15.9q-0.1 0.4-0.4 0.6q-0.3 0.3-0.6 0.4q-0.4 0-0.8-0.1q-0.3-0.2-0.6-0.5q-0.4-0.6-0.8-1.3q-0.4-0.7-0.7-1.5q-0.3-0.7-0.5-1.5q-0.3-0.7-0.5-1.5c-2.1-7.5-10.3 3.8-11.8-11.3c-1.1-10.7-27.3 9-46.8-8.4c0 0-2.9 3.8-11.2 3.6c-4.8-0.2-4.5 13.9-4.5 13.9z" class="s8"/><path d="m623.7 426c7.4-1.6 15.1-2.9 23.2-4.1v1.7c3 20.9 20.1 34.2 30.3 36.3c-5-1.9-19.5 17.8-23.7 24.2c-4.3 6.5-6.6 3.6-6.6 3.6c-16.6-12.8-25.3-50.1-23.2-61.7z" class="s10"/><path d="m716 421.4q2.6 0.5 5.2 1q2.6 0.5 5.2 1.1q2.6 0.5 5.2 1.2q2.5 0.6 5.1 1.3c2.9 13.8-4 33.4-8.5 44.7c-6.1 15.7-12.2 23.3-15.6 17.7c-3.3-5.6-22.7-31.1-27.9-29c11.1-3.4 30.3-16.3 31.1-30.5c0.1-2 0.1-4.5 0.2-7.5z" class="s10"/><path d="m677.2 459.9c-5-1.9-19.5 12.9-23.7 19.4c-4.3 6.5-6.5 3.6-6.5 3.6c-13.7-11.9-23-45.4-20.9-56.9c1.1-5.9 10.6-9.7 20.9-14.2v11.8c2.9 20.9 20 34.2 30.2 36.3z" class="s9"/><path d="m726.9 467.2c-6.8 15.4-10.9 21.9-14.3 16.3c-3.3-5.6-22.6-26.2-27.9-24.1c11.1-3.4 30.3-16.3 31.1-30.5c0.2-4.6 0.3-12.4 0.4-21.2c4.7 2.2 13.9 7.5 16.8 13.9c4.6 10.5 0.9 30-6.1 45.6z" class="s9"/><path d="m771.2 622.2c-1.4-20-6.6-67.3-3.6-83.8c10.4-55.5 43.1-73 43.1-73c20.9 24 34 114.6 34 159.8z" class="s9"/><path d="m716.5 630.6l54.7-8.4c18.1-25 71.3-29.5 73.5 3c2.3 32.5-13.5 44.5-28.2 44.5h-99.3z" class="s9"/><path d="m666.2 668.5q-0.6 0.4-1.3 0.7q-0.6 0.2-1.3 0.4q-0.7 0.1-1.4 0.1h-51.2c-0.9 0-1.7-0.3-2.5-0.8c-0.7-0.5-1.3-1.2-1.6-2c-0.4-0.8-0.5-1.7-0.3-2.6c0.2-0.9 0.6-1.7 1.2-2.3l22.7-22.7q0.8-0.8 1.6-1.5q0.7-0.7 1.6-1.3q0.8-0.6 1.7-1.2q0.8-0.6 1.8-1.1l12.5-7.2q1-0.6 2.2-1q1.2-0.4 2.4-0.6q1.2-0.2 2.5-0.2q1.2 0 2.4 0.3l22.1 4.6q0.6 0.1 1.1 0.2q0.6 0.1 1.2 0.2q0.6 0 1.2 0q0.6 0.1 1.1 0.1h31.1c5.9 0 19.5 4.6 19.1 20.4c-0.4 15.8-13.8 18.7-13.8 18.7h-28.4q-0.9 0-1.9-0.1q-1-0.1-2-0.2q-0.9-0.2-1.9-0.5q-1-0.2-1.9-0.5l-14.3-5.1l-4.6 4.4q-0.5 0.5-1.1 0.8z" class="s2"/><path d="m946.5 379.3c0 28.9-31.5 119.9-61.1 144.5c-19.6 16.4-68.1 23.2-101.8 26q-0.8-4.1-2.1-8.2q-1.2-4-2.9-7.9q-1.6-3.9-3.7-7.6q-2.1-3.7-4.5-7.2c20.6-3.9 72.1-24.6 72.1-24.6c0 0 45.4-51.3 37.3-92.6c-8-41.3 29.3-76.3 50.6-64c0 0 16.1 7.9 16.1 41.6z" class="s6"/><path d="m766.4 519.5q0.6-0.1 1.3-0.2q0.7-0.1 1.4-0.2q0.6-0.1 1.3-0.2q2.4 3.5 4.5 7.2q2.1 3.7 3.7 7.6q1.7 3.9 2.9 7.9q1.3 4.1 2.1 8.2c-17.3 1.4-30.8 1.8-34.5 1.8c-11.1 0-59.2 17.9-65.4 19.1c-6.2 1.3-30.2-5.5-33.9-9.4c-3.7-3.8-1.3-20.2 0-22.9c1.2-2.8 48.7-18.9 48.7-18.9h66.5q0.7 0 1.4 0z" class="s2"/><path d="m338.8 460.4l39-20.8c0 0 11.7 22.6-5.3 35.7c-17 13.2-33.7 0-33.7 0z" class="s11"/><path d="m362.8 351.8v98.6h-32v-93.2z" class="s11"/><path d="m308.7 528h36.7c8.7 47.8 3.2 101.6-2.9 141.7h-63.7c11.1-33.4 28.7-56.5 31.8-72.9c2.9-15.5 1.5-52.7-1.9-68.8z" class="s8"/><path d="m251 528h57.7c3.4 16.1 4.8 53.3 1.9 68.8c-3.1 16.4-20.7 39.5-31.8 72.9h-16.9c-5.1-40.7-12.4-76.5-12.4-76.5z" class="s12"/><path d="m310.6 596.8c-3.1 16.4-20.7 39.5-31.8 72.9h-74c-2.5-40.4-6.7-93.5-8.3-146.8h110.8q0.2 0.6 0.4 1.2q0.2 0.7 0.4 1.3q0.2 0.7 0.3 1.3q0.2 0.6 0.3 1.3c3.4 16.1 4.8 53.3 1.9 68.8z" class="s5"/><path d="m358.3 328.6c12 32.3-2.2 58.2-12.9 103.3c-10.7 45.1 0 96.1 0 96.1c-71.2 34.9-148.9-5.1-148.9-5.1c0-48-48.1-166.8-41.5-205.2c7.3-42 51.5-71.2 117-53.7c30.7 8.3 75.7 36.3 86.3 64.6z" class="s6"/><path d="m321.8 270.7c-16.4 14.1-13 24-13 24c6 17.8-14.4 11.4-24 5.8c-14.6-8.7-33.9-28.9-23.4-38.8c10.4-10 35.1-41.1 35.1-41.1c7.1-4.4 25.3 50.1 25.3 50.1z" class="s4"/><path d="m308.8 294.7c-22.2-4.6-20.5-40.9-11.1-60.2l8-3.8c7.6 14.8 16.1 40 16.1 40c-16.4 14.1-13 24-13 24z" class="s2"/><path d="m336.4 192.7c17.2-0.9 35.5 13.4 31.7 31c-1.5 6.8-11 24.3-25.6 38.7c-16.9 16.7-30.5 22.6-41.1 7.2c-10.7-15.3-2.2-40.9-2.2-40.9c-4.4 2.6-8.6-5.2-4.8-16.5c3.4-9.9 14-9 11.9 2.8c0 0 9.1-21.1 30.1-22.3z" class="s4"/><path d="m300.4 205.6c8.3-31.4 38.9-34.5 44-28.7c8.8 9.9 9.3 7.4 22 11.4c13.8 4.4 6 13.9 6 13.9c17.9 4.9 13.2 32.4-7.1 34.5c-15.7 1.7-22.9-7.7-31.8-17.9c-8.8-10.2-18.5 3.9-22.7 6.3c-4.1 2.3-5.2-3.1-4.5-10.1c1-10.8-5.9-9.4-5.9-9.4z" class="s8"/><path d="m183 472.3c-10-2.5-17.5-6.6-20.5-13c-15.5-32.2-23.9-127.6 4.9-170c10.6-15.7 33.2-17.7 49.3-6.4c16.2 11.4 22 40.5 10.1 63.1c-11.9 22.7-20.3 58.1-21 71.8c-22.7-5.2-44.6 44.5-22.8 54.5z" class="s6"/><path d="m290.3 456.6l43-52q0.7-0.9 1.6-1.5q0.9-0.6 1.9-0.9q1-0.3 2.1-0.3q1.1 0 2.1 0.2l73 20.2q0.6 0.1 1.1 0.6q0.4 0.5 0.6 1.1q0.1 0.6 0 1.2q-0.2 0.7-0.7 1.1l-55.2 49.9q-0.5 0.3-1 0.6q-0.5 0.3-1.1 0.4q-0.5 0.2-1.1 0.2q-0.6 0-1.2-0.1l-63.2-15q-0.9-0.2-1.6-0.8q-0.6-0.6-0.9-1.5q-0.3-0.9-0.1-1.8q0.1-0.9 0.7-1.6z" class="s13"/><path d="m339.3 445.4q-1.6 2.1-3.4 4q-1.9 1.9-4 3.5q-2.1 1.6-4.5 2.8q-2.4 1.2-4.9 2c-30.4 10.4-102.8 23.7-139.5 14.6c-21.8-10 0.1-59.7 22.8-54.5q3 1.4 5.9 2.9q2.8 1.5 5.7 3.2q2.8 1.7 5.5 3.5q2.7 1.8 5.3 3.7h38.1c2.3 0 7.1-2.6 10.9-5q1.5-0.9 3.1-1.7q1.6-0.7 3.3-1.2q1.7-0.5 3.4-0.8q1.7-0.2 3.5-0.3c12.1-0.3 34.6-0.6 37.6 0.2c4.2 1.2 11.3 6.6 13.8 13.7c1 2.8-0.5 6.2-2.6 9.4z" class="s4"/><path d="m84.2 669.7h977.6" class="s13"/><path d="m598.3 677.6q-0.9-0.4-1.6-1.1q-0.7-0.7-1.1-1.6q-0.4-0.9-0.4-1.9v-5.9q0-0.9 0.4-1.8q0.4-1 1.1-1.6q0.7-0.7 1.6-1.1q0.9-0.4 1.9-0.4h110.1q0.9 0 1.9 0.4q0.9 0.4 1.6 1.1q0.6 0.6 1 1.6q0.4 0.9 0.4 1.8c0 1.5-0.3 2.9-0.8 4.2c-0.6 1.3-1.4 2.5-2.4 3.5c-1 1-2.2 1.8-3.5 2.3c-1.3 0.6-2.7 0.9-4.1 0.9h-104.2q-1 0-1.9-0.4z" class="s13"/><path d="m409.1 676.9c-2.2-0.8-4.2-1.8-6-3.2c-1.8-1.4-3.4-3-4.7-4.9c-1.2-1.9-2.2-4-2.8-6.2l-38.4-139.8c-0.5-1.9-0.6-3.9-0.2-5.8c0.4-1.9 1.2-3.7 2.4-5.3c1.1-1.6 2.7-2.8 4.4-3.7c1.8-0.9 3.7-1.3 5.7-1.3h217.6c2.3 0 4.6 0.4 6.7 1.1c2.2 0.7 4.2 1.8 6 3.2c1.8 1.3 3.4 3 4.6 4.9c1.3 1.9 2.2 3.9 2.8 6.1l38.5 139.9c0.5 1.9 0.6 3.8 0.2 5.8c-0.4 1.9-1.2 3.7-2.4 5.3c-1.2 1.5-2.7 2.8-4.5 3.6c-1.7 0.9-3.6 1.4-5.6 1.4h-217.7c-2.2 0-4.5-0.4-6.6-1.1z" class="s13"/><path d="m1054.1 569.7c-3.2 0.9-7.8 4.5-12.8 9.3c-5.1 4.8-10.6 10.5-17.5 15.7c-4.3 3.2-8.4 6.2-12.4 9.1c-4 2.9-7.9 5.6-11.3 8.4c-6.8 5.5-12.1 10.9-13.9 15c1.8-4 2.6-11.5 6-20.5q0.7-1.9 1.5-3.7q0.8-1.9 1.7-3.6q1-1.8 2-3.5q1-1.7 2.1-3.4q1.3-1.9 2.8-3.7q1.4-1.7 3-3.4q1.6-1.7 3.3-3.2q1.7-1.5 3.5-3q2.8-2 5.8-3.6q3-1.6 6.2-2.7q3.3-1.2 6.6-1.9q3.4-0.7 6.8-0.9c7.6-0.6 13.4 0.5 16.6-0.4z" class="s14"/><path d="m983.5 624.2c0.4-4.1-1.6-10.6-2.9-19.2q-0.7-3.8-1-7.7q-0.3-3.8-0.2-7.7q0-3.9 0.5-7.8q0.4-3.8 1.2-7.6c3.3-14.2 9.5-26.3 15.4-35.6c5.9-9.4 11.5-16.2 13.7-21c-2.2 4.8-3.3 13.6-4.6 24.3c-1.3 10.7-2.6 23.3-5.6 36.6c-2.5 10.8-6.4 20-9.8 27.8c-3.5 7.7-6.3 13.8-6.7 17.9z" class="s14"/><path d="m923.1 554.1c3.2 1.5 9.5 1.5 17.2 3.8q3.5 1 6.9 2.4q3.3 1.5 6.4 3.4q3.1 1.9 5.9 4.2q2.9 2.3 5.3 4.9q3 3.4 5.5 7.2q2.5 3.8 4.5 7.9q2 4.1 3.4 8.5q1.4 4.3 2.2 8.8c2 10.1 1.4 18 2.4 22.6c-1-4.6-5.2-11.4-11.2-18.6c-5.9-7.3-13.6-14.9-21.2-23.4c-6.2-6.9-11-13.9-15.5-19.8c-4.3-5.9-8.5-10.4-11.8-11.9z" class="s14"/><path d="m1024.9 601.4q1.1 0.5 1.9 1.4q0.8 0.9 1.2 2.1q0.3 1.1 0.2 2.4l-7.9 65.6q-0.1 1.1-0.6 2q-0.4 0.9-1.2 1.6q-0.8 0.7-1.8 1.1q-1 0.4-2 0.4h-48.6q-1 0-2-0.4q-1-0.4-1.8-1.1q-0.7-0.7-1.2-1.6q-0.5-0.9-0.6-2l-7.9-65.6q-0.1-1.3 0.3-2.4q0.3-1.2 1.1-2.1q0.8-0.9 1.9-1.4q1.2-0.5 2.4-0.5h64.2q1.3 0 2.4 0.5z" class="s14"/><path d="m949.6 600q0.2-0.5 0.5-1q0.4-0.4 0.9-0.6q0.6-0.3 1.1-0.3h76.6q0.6 0 1.1 0.3q0.5 0.2 0.9 0.6q0.4 0.5 0.5 1q0.2 0.6 0.1 1.1l-2.9 24.4q0 0.4-0.3 0.9q-0.2 0.4-0.5 0.7q-0.4 0.4-0.9 0.5q-0.4 0.2-0.9 0.2h-70.8q-0.5 0-0.9-0.2q-0.5-0.1-0.8-0.5q-0.4-0.3-0.6-0.7q-0.3-0.5-0.3-0.9l-2.9-24.4q-0.1-0.5 0.1-1.1z" class="s15"/></g></svg>