<svg width="566" height="624" viewBox="0 0 566 624" fill="none" xmlns="http://www.w3.org/2000/svg">
<path d="M113.639 571.668L65.9585 618.412C62.9669 621.345 58.9444 622.988 54.7547 622.987L27.5552 622.98C12.3418 622.976 3.59629 606.627 0.557853 596.853C0.159154 595.57 0.00478028 594.23 0.00500187 592.887L0.0247342 473.284C0.0269757 459.698 15.8895 452.3 26.295 461.037C56.2079 486.151 93.609 517.607 106.116 528.32C121.186 541.227 119.883 558.186 116.706 567.126C116.086 568.871 114.962 570.372 113.639 571.668Z" fill="url(#paint0_linear_100_2)"/>
<path d="M445.197 54.821L496.24 4.60169C499.233 1.65723 503.258 0.00705899 507.456 0.00705899H536.737C552.827 0.00705899 562.107 -0.516325 565.372 7.45072C565.88 8.68976 566 10.0463 566 11.3853V161.646C566 175.244 550.125 182.65 539.723 173.893C507.696 146.933 466.834 112.476 453.323 100.872C437.219 87.0413 438.715 68.8377 442.132 59.3601C442.759 57.6201 443.878 56.1182 445.197 54.821Z" fill="url(#paint1_linear_100_2)"/>
<ellipse cx="143.101" cy="114.556" rx="13.211" ry="13.3333" fill="#FBE206"/>
<ellipse cx="156.752" cy="91.8888" rx="9.24771" ry="9.33333" fill="#0FC92C"/>
<ellipse cx="99.945" cy="101.222" rx="29.945" ry="30.2222" fill="#6D6BE0"/>
<ellipse cx="147.945" cy="149.667" rx="17.1743" ry="17.3333" fill="#E71AA1"/>
<defs>
<linearGradient id="paint0_linear_100_2" x1="59.3607" y1="622.988" x2="-10.8538" y2="443.542" gradientUnits="userSpaceOnUse">
<stop stop-color="#458ADC"/>
<stop offset="1" stop-color="#95B9E3"/>
</linearGradient>
<linearGradient id="paint1_linear_100_2" x1="502.96" y1="0.00707833" x2="577.978" y2="190.993" gradientUnits="userSpaceOnUse">
<stop stop-color="#458ADC"/>
<stop offset="1" stop-color="#95B9E3"/>
</linearGradient>
</defs>
</svg>
