<svg xmlns="http://www.w3.org/2000/svg" width="463" height="87" fill="none" viewBox="0 0 463 87"><rect width="43" height="44" fill="#fff"/><rect width="44" height="44" x="43" fill="#3B81DE"/><rect width="44" height="43" x="43" y="44" fill="#fff"/><rect width="43" height="43" y="44" fill="#3B81DE"/><circle cx="22" cy="22" r="11" fill="#3B81DE"/><circle cx="65" cy="22" r="11" fill="#fff"/><circle cx="65" cy="65" r="11" fill="#3B81DE"/><circle cx="22" cy="65" r="11" fill="#fff"/><path fill="#3B81DE" d="M161.812 71H149.438L135.973 49.3438L131.367 52.6484V71H120.469V19.6016H131.367V43.1211C132.094 42.1133 132.809 41.1055 133.512 40.0977C134.215 39.0898 134.93 38.082 135.656 37.0742L149.578 19.6016H161.672L143.742 42.3477L161.812 71ZM183.539 30.8867C188.812 30.8867 192.855 32.0352 195.668 34.332C198.48 36.6289 199.887 40.1211 199.887 44.8086V71H192.398L190.324 65.6562H190.043C188.918 67.0625 187.77 68.2109 186.598 69.1016C185.426 69.9922 184.078 70.6484 182.555 71.0703C181.031 71.4922 179.18 71.7031 177 71.7031C174.68 71.7031 172.594 71.2578 170.742 70.3672C168.914 69.4766 167.473 68.1172 166.418 66.2891C165.363 64.4375 164.836 62.0938 164.836 59.2578C164.836 55.0859 166.301 52.0156 169.23 50.0469C172.16 48.0547 176.555 46.9531 182.414 46.7422L189.234 46.5312V44.8086C189.234 42.7461 188.695 41.2344 187.617 40.2734C186.539 39.3125 185.039 38.832 183.117 38.832C181.219 38.832 179.355 39.1016 177.527 39.6406C175.699 40.1797 173.871 40.8594 172.043 41.6797L168.492 34.4375C170.578 33.3359 172.91 32.4688 175.488 31.8359C178.09 31.2031 180.773 30.8867 183.539 30.8867ZM189.234 52.7891L185.086 52.9297C181.617 53.0234 179.203 53.6445 177.844 54.793C176.508 55.9414 175.84 57.4531 175.84 59.3281C175.84 60.9688 176.32 62.1406 177.281 62.8438C178.242 63.5234 179.496 63.8633 181.043 63.8633C183.34 63.8633 185.273 63.1836 186.844 61.8242C188.438 60.4648 189.234 58.5312 189.234 56.0234V52.7891ZM257.121 30.957C261.574 30.957 264.938 32.1055 267.211 34.4023C269.508 36.6758 270.656 40.332 270.656 45.3711V71H259.898V48.043C259.898 45.2305 259.418 43.1094 258.457 41.6797C257.496 40.25 256.008 39.5352 253.992 39.5352C251.156 39.5352 249.141 40.5547 247.945 42.5938C246.75 44.6094 246.152 47.5039 246.152 51.2773V71H235.43V48.043C235.43 46.168 235.219 44.5977 234.797 43.332C234.375 42.0664 233.73 41.1172 232.863 40.4844C231.996 39.8516 230.883 39.5352 229.523 39.5352C227.531 39.5352 225.961 40.0391 224.812 41.0469C223.688 42.0312 222.879 43.4961 222.387 45.4414C221.918 47.3633 221.684 49.7188 221.684 52.5078V71H210.961V31.6953H219.152L220.594 36.7227H221.191C221.988 35.3633 222.984 34.2617 224.18 33.418C225.398 32.5742 226.734 31.9531 228.188 31.5547C229.641 31.1563 231.117 30.957 232.617 30.957C235.5 30.957 237.938 31.4258 239.93 32.3633C241.945 33.3008 243.492 34.7539 244.57 36.7227H245.52C246.691 34.707 248.344 33.2422 250.477 32.3281C252.633 31.4141 254.848 30.957 257.121 30.957ZM297.797 30.8867C303.07 30.8867 307.113 32.0352 309.926 34.332C312.738 36.6289 314.145 40.1211 314.145 44.8086V71H306.656L304.582 65.6562H304.301C303.176 67.0625 302.027 68.2109 300.855 69.1016C299.684 69.9922 298.336 70.6484 296.812 71.0703C295.289 71.4922 293.438 71.7031 291.258 71.7031C288.938 71.7031 286.852 71.2578 285 70.3672C283.172 69.4766 281.73 68.1172 280.676 66.2891C279.621 64.4375 279.094 62.0938 279.094 59.2578C279.094 55.0859 280.559 52.0156 283.488 50.0469C286.418 48.0547 290.812 46.9531 296.672 46.7422L303.492 46.5312V44.8086C303.492 42.7461 302.953 41.2344 301.875 40.2734C300.797 39.3125 299.297 38.832 297.375 38.832C295.477 38.832 293.613 39.1016 291.785 39.6406C289.957 40.1797 288.129 40.8594 286.301 41.6797L282.75 34.4375C284.836 33.3359 287.168 32.4688 289.746 31.8359C292.348 31.2031 295.031 30.8867 297.797 30.8867ZM303.492 52.7891L299.344 52.9297C295.875 53.0234 293.461 53.6445 292.102 54.793C290.766 55.9414 290.098 57.4531 290.098 59.3281C290.098 60.9688 290.578 62.1406 291.539 62.8438C292.5 63.5234 293.754 63.8633 295.301 63.8633C297.598 63.8633 299.531 63.1836 301.102 61.8242C302.695 60.4648 303.492 58.5312 303.492 56.0234V52.7891ZM360.938 51.2773C360.938 54.5586 360.492 57.4648 359.602 59.9961C358.734 62.5273 357.457 64.6719 355.77 66.4297C354.105 68.1641 352.09 69.4766 349.723 70.3672C347.379 71.2578 344.73 71.7031 341.777 71.7031C339.012 71.7031 336.469 71.2578 334.148 70.3672C331.852 69.4766 329.848 68.1641 328.137 66.4297C326.449 64.6719 325.137 62.5273 324.199 59.9961C323.285 57.4648 322.828 54.5586 322.828 51.2773C322.828 46.918 323.602 43.2266 325.148 40.2031C326.695 37.1797 328.898 34.8828 331.758 33.3125C334.617 31.7422 338.027 30.957 341.988 30.957C345.668 30.957 348.926 31.7422 351.762 33.3125C354.621 34.8828 356.859 37.1797 358.477 40.2031C360.117 43.2266 360.938 46.918 360.938 51.2773ZM333.762 51.2773C333.762 53.8555 334.043 56.0234 334.605 57.7812C335.168 59.5391 336.047 60.8633 337.242 61.7539C338.438 62.6445 339.996 63.0898 341.918 63.0898C343.816 63.0898 345.352 62.6445 346.523 61.7539C347.719 60.8633 348.586 59.5391 349.125 57.7812C349.688 56.0234 349.969 53.8555 349.969 51.2773C349.969 48.6758 349.688 46.5195 349.125 44.8086C348.586 43.0742 347.719 41.7734 346.523 40.9062C345.328 40.0391 343.77 39.6055 341.848 39.6055C339.012 39.6055 336.949 40.5781 335.66 42.5234C334.395 44.4688 333.762 47.3867 333.762 51.2773Z"/></svg>