<svg width="463" height="105" viewBox="0 0 463 105" fill="none" xmlns="http://www.w3.org/2000/svg">
<rect y="9" width="43" height="44" fill="white"/>
<rect x="43" y="9" width="44" height="44" fill="#3B81DE"/>
<rect x="43" y="53" width="44" height="43" fill="white"/>
<rect y="53" width="43" height="43" fill="#3B81DE"/>
<circle cx="22" cy="31" r="11" fill="#3B81DE"/>
<circle cx="65" cy="31" r="11" fill="white"/>
<circle cx="65" cy="74" r="11" fill="#3B81DE"/>
<circle cx="22" cy="74" r="11" fill="white"/>
<path d="M177.75 90H161.25L143.297 61.125L137.156 65.5312V90H122.625V21.4688H137.156V52.8281C138.125 51.4844 139.078 50.1406 140.016 48.7969C140.953 47.4531 141.906 46.1094 142.875 44.7656L161.438 21.4688H177.562L153.656 51.7969L177.75 90ZM206.719 36.5156C213.75 36.5156 219.141 38.0469 222.891 41.1094C226.641 44.1719 228.516 48.8281 228.516 55.0781V90H218.531L215.766 82.875H215.391C213.891 84.75 212.359 86.2812 210.797 87.4688C209.234 88.6562 207.438 89.5312 205.406 90.0938C203.375 90.6562 200.906 90.9375 198 90.9375C194.906 90.9375 192.125 90.3438 189.656 89.1562C187.219 87.9688 185.297 86.1562 183.891 83.7188C182.484 81.25 181.781 78.125 181.781 74.3438C181.781 68.7812 183.734 64.6875 187.641 62.0625C191.547 59.4062 197.406 57.9375 205.219 57.6562L214.312 57.375V55.0781C214.312 52.3281 213.594 50.3125 212.156 49.0312C210.719 47.75 208.719 47.1094 206.156 47.1094C203.625 47.1094 201.141 47.4688 198.703 48.1875C196.266 48.9062 193.828 49.8125 191.391 50.9062L186.656 41.25C189.438 39.7812 192.547 38.625 195.984 37.7812C199.453 36.9375 203.031 36.5156 206.719 36.5156ZM214.312 65.7188L208.781 65.9062C204.156 66.0312 200.938 66.8594 199.125 68.3906C197.344 69.9219 196.453 71.9375 196.453 74.4375C196.453 76.625 197.094 78.1875 198.375 79.125C199.656 80.0312 201.328 80.4844 203.391 80.4844C206.453 80.4844 209.031 79.5781 211.125 77.7656C213.25 75.9531 214.312 73.375 214.312 70.0312V65.7188ZM304.828 36.6094C310.766 36.6094 315.25 38.1406 318.281 41.2031C321.344 44.2344 322.875 49.1094 322.875 55.8281V90H308.531V59.3906C308.531 55.6406 307.891 52.8125 306.609 50.9062C305.328 49 303.344 48.0469 300.656 48.0469C296.875 48.0469 294.188 49.4062 292.594 52.125C291 54.8125 290.203 58.6719 290.203 63.7031V90H275.906V59.3906C275.906 56.8906 275.625 54.7969 275.062 53.1094C274.5 51.4219 273.641 50.1562 272.484 49.3125C271.328 48.4688 269.844 48.0469 268.031 48.0469C265.375 48.0469 263.281 48.7188 261.75 50.0625C260.25 51.375 259.172 53.3281 258.516 55.9219C257.891 58.4844 257.578 61.625 257.578 65.3438V90H243.281V37.5938H254.203L256.125 44.2969H256.922C257.984 42.4844 259.312 41.0156 260.906 39.8906C262.531 38.7656 264.312 37.9375 266.25 37.4062C268.188 36.875 270.156 36.6094 272.156 36.6094C276 36.6094 279.25 37.2344 281.906 38.4844C284.594 39.7344 286.656 41.6719 288.094 44.2969H289.359C290.922 41.6094 293.125 39.6562 295.969 38.4375C298.844 37.2188 301.797 36.6094 304.828 36.6094ZM359.062 36.5156C366.094 36.5156 371.484 38.0469 375.234 41.1094C378.984 44.1719 380.859 48.8281 380.859 55.0781V90H370.875L368.109 82.875H367.734C366.234 84.75 364.703 86.2812 363.141 87.4688C361.578 88.6562 359.781 89.5312 357.75 90.0938C355.719 90.6562 353.25 90.9375 350.344 90.9375C347.25 90.9375 344.469 90.3438 342 89.1562C339.562 87.9688 337.641 86.1562 336.234 83.7188C334.828 81.25 334.125 78.125 334.125 74.3438C334.125 68.7812 336.078 64.6875 339.984 62.0625C343.891 59.4062 349.75 57.9375 357.562 57.6562L366.656 57.375V55.0781C366.656 52.3281 365.938 50.3125 364.5 49.0312C363.062 47.75 361.062 47.1094 358.5 47.1094C355.969 47.1094 353.484 47.4688 351.047 48.1875C348.609 48.9062 346.172 49.8125 343.734 50.9062L339 41.25C341.781 39.7812 344.891 38.625 348.328 37.7812C351.797 36.9375 355.375 36.5156 359.062 36.5156ZM366.656 65.7188L361.125 65.9062C356.5 66.0312 353.281 66.8594 351.469 68.3906C349.688 69.9219 348.797 71.9375 348.797 74.4375C348.797 76.625 349.438 78.1875 350.719 79.125C352 80.0312 353.672 80.4844 355.734 80.4844C358.797 80.4844 361.375 79.5781 363.469 77.7656C365.594 75.9531 366.656 73.375 366.656 70.0312V65.7188ZM443.25 63.7031C443.25 68.0781 442.656 71.9531 441.469 75.3281C440.312 78.7031 438.609 81.5625 436.359 83.9062C434.141 86.2188 431.453 87.9688 428.297 89.1562C425.172 90.3438 421.641 90.9375 417.703 90.9375C414.016 90.9375 410.625 90.3438 407.531 89.1562C404.469 87.9688 401.797 86.2188 399.516 83.9062C397.266 81.5625 395.516 78.7031 394.266 75.3281C393.047 71.9531 392.438 68.0781 392.438 63.7031C392.438 57.8906 393.469 52.9688 395.531 48.9375C397.594 44.9062 400.531 41.8438 404.344 39.75C408.156 37.6562 412.703 36.6094 417.984 36.6094C422.891 36.6094 427.234 37.6562 431.016 39.75C434.828 41.8438 437.812 44.9062 439.969 48.9375C442.156 52.9688 443.25 57.8906 443.25 63.7031ZM407.016 63.7031C407.016 67.1406 407.391 70.0312 408.141 72.375C408.891 74.7188 410.062 76.4844 411.656 77.6719C413.25 78.8594 415.328 79.4531 417.891 79.4531C420.422 79.4531 422.469 78.8594 424.031 77.6719C425.625 76.4844 426.781 74.7188 427.5 72.375C428.25 70.0312 428.625 67.1406 428.625 63.7031C428.625 60.2344 428.25 57.3594 427.5 55.0781C426.781 52.7656 425.625 51.0312 424.031 49.875C422.438 48.7188 420.359 48.1406 417.797 48.1406C414.016 48.1406 411.266 49.4375 409.547 52.0312C407.859 54.625 407.016 58.5156 407.016 63.7031Z" fill="#3B81DE"/>
</svg>
